<svg width="88" height="88" viewBox="0 0 88 88" fill="none" xmlns="http://www.w3.org/2000/svg">
<circle cx="44" cy="44" r="44" fill="#CA87FF"/>
<path d="M42.0979 26.0892C42.6966 24.2466 45.3034 24.2466 45.9021 26.0892L48.4373 33.8916C48.9728 35.5397 50.5086 36.6556 52.2415 36.6556H60.4455C62.3829 36.6556 63.1885 39.1348 61.6211 40.2736L54.9839 45.0958C53.5819 46.1143 52.9953 47.9198 53.5308 49.5679L56.066 57.3703C56.6647 59.213 54.5557 60.7452 52.9883 59.6064L46.3511 54.7842C44.9492 53.7657 43.0508 53.7657 41.6489 54.7842L35.0117 59.6064C33.4443 60.7452 31.3353 59.213 31.934 57.3703L34.4692 49.5679C35.0047 47.9198 34.4181 46.1143 33.0161 45.0958L26.379 40.2736C24.8115 39.1348 25.6171 36.6556 27.5545 36.6556H35.7585C37.4914 36.6556 39.0272 35.5397 39.5627 33.8916L42.0979 26.0892Z" stroke="#722AAB" stroke-width="2"/>
</svg>
