<?xml version="1.0" standalone="yes"?>
<svg xmlns="http://www.w3.org/2000/svg" width="116" height="116">
<path style="fill:transparent; stroke:none;" d="M0 0L0 116L116 116L116 0L0 0z"/>
<path style="fill:#9D4747; stroke:none;" d="M12 19C21.4448 29.4025 35.6996 34.8464 48 30L48 26C32.8427 22.4381 27.859 8.54114 12 19M48 38C57.1913 55.921 76.2274 32.8105 88 30L105 19C87.9194 5.22879 63.9718 30.074 48 38z"/>
<path style="fill:#9D4747; stroke:none;" d="M8 28L8.03858 39.8017L21.1559 48.5039L54 66C54 62.4274 55.0724 56.7073 52.9722 53.6127C50.9065 50.5688 46.0906 48.9836 43.0895 47.0039C33.3735 40.5946 19.275 30.3598 8 28z"/>
<path style="fill:#202769; stroke:none;" d="M82 54C89.5417 52.9743 101.809 46.5803 106.772 40.6605C108.811 38.2272 110.667 31.4281 107.436 29.0826C104.854 27.2083 99.3157 31.3533 97.0887 32.6289C86.3946 38.7543 82 41.4044 82 54z"/>
<path style="fill:#9D4747; stroke:none;" d="M62 106C65.9355 105.506 71.6957 103.821 73.4113 99.7361C75.2325 95.3995 74 88.6355 74 84L74 48C70.0483 48.5701 64.0198 51.2651 62.5139 55.3395C60.8611 59.8114 62 66.287 62 71L62 106z"/>
<path style="fill:#202769; stroke:none;" d="M43 70C39.4282 82.0839 38.3334 103.913 54 106C54 91.5688 56.7267 80.1731 46 70L43 70z"/>
</svg>
