<?xml version="1.0" standalone="no"?>
<!DOCTYPE svg PUBLIC "-//W3C//DTD SVG 20010904//EN"
 "http://www.w3.org/TR/2001/REC-SVG-20010904/DTD/svg10.dtd">
<svg version="1.0" xmlns="http://www.w3.org/2000/svg"
 width="116.000000pt" height="116.000000pt" viewBox="0 0 116.000000 116.000000"
 preserveAspectRatio="xMidYMid meet" >

<g transform="translate(0.000000,116.000000) scale(0.100000,-0.100000)"
fill="#9D4747" stroke="none">
<path d="M0 580 l0 -580 580 0 580 0 0 580 0 580 -580 0 -580 0 0 -580z m240
453 c0 -9 48 -33 63 -33 5 0 17 -8 26 -17 18 -20 67 -52 94 -60 9 -3 17 -9 17
-14 0 -5 9 -9 20 -9 13 0 20 -7 20 -20 0 -11 -7 -20 -16 -20 -8 0 -12 -4 -9
-10 3 -5 -3 -10 -14 -10 -12 0 -21 -4 -21 -10 0 -5 -13 -10 -28 -10 -30 0 -82
20 -82 33 0 4 -7 7 -15 7 -8 0 -15 5 -15 10 0 6 -9 10 -20 10 -11 0 -20 3 -20
8 0 4 -21 18 -47 32 -68 35 -92 60 -57 60 8 0 12 5 9 10 -3 6 0 10 7 10 19 0
68 23 68 33 0 4 5 7 10 7 6 0 10 -3 10 -7z m715 -5 c14 -6 25 -15 25 -20 0 -4
9 -8 20 -8 11 0 20 -4 20 -9 0 -5 10 -12 23 -14 l22 -4 -22 -8 c-13 -4 -23
-11 -23 -16 0 -5 -9 -9 -20 -9 -11 0 -20 -4 -20 -8 0 -5 -21 -20 -47 -33 -27
-13 -49 -27 -51 -31 -2 -5 -10 -8 -18 -8 -9 0 -12 -4 -9 -10 3 -5 -3 -10 -14
-10 -12 0 -21 -4 -21 -10 0 -5 -7 -10 -15 -10 -17 0 -51 -18 -72 -37 -7 -6
-22 -15 -33 -18 -11 -3 -20 -11 -20 -16 0 -5 -9 -9 -20 -9 -11 0 -20 -4 -20
-10 0 -5 -7 -10 -15 -10 -8 0 -15 -4 -15 -10 0 -5 -11 -10 -25 -10 -14 0 -25
5 -25 10 0 6 -6 10 -13 10 -7 0 -22 8 -33 18 -11 11 -26 21 -34 24 -8 2 5 16
33 34 26 16 47 32 47 37 0 4 9 7 20 7 11 0 20 5 20 10 0 6 9 10 20 10 11 0 20
5 20 10 0 6 7 10 15 10 9 0 25 9 37 20 12 11 28 20 35 20 7 0 13 5 13 10 0 6
8 10 18 10 10 0 24 9 32 20 8 11 22 20 32 20 10 0 18 5 18 10 0 6 9 10 20 10
11 0 20 3 20 8 0 4 10 12 23 18 12 7 23 12 24 13 1 0 14 -4 28 -11z m144 -202
c1 -62 0 -65 -29 -78 -17 -7 -30 -16 -30 -20 0 -5 -7 -8 -15 -8 -8 0 -15 -4
-15 -10 0 -5 -7 -10 -15 -10 -8 0 -15 -4 -15 -10 0 -5 -9 -10 -20 -10 -11 0
-20 -4 -20 -10 0 -5 -9 -10 -20 -10 -11 0 -20 -4 -20 -9 0 -5 -13 -14 -30 -21
-16 -7 -30 -16 -30 -21 0 -5 -4 -9 -10 -9 -6 0 -10 29 -10 66 0 74 10 89 80
122 19 9 42 24 51 34 9 10 21 18 26 18 15 0 63 24 63 33 0 4 9 7 20 7 11 0 20
5 20 11 0 5 4 8 9 5 5 -3 9 -35 10 -70z m-983 43 c3 -5 14 -9 25 -9 10 0 19
-4 19 -10 0 -5 7 -10 15 -10 8 0 15 -4 15 -10 0 -5 7 -10 15 -10 8 0 15 -4 15
-10 0 -5 9 -10 20 -10 11 0 20 -4 20 -10 0 -5 7 -10 15 -10 8 0 15 -4 15 -10
0 -5 7 -10 15 -10 8 0 15 -4 15 -10 0 -5 9 -10 20 -10 11 0 20 -4 20 -10 0 -5
9 -10 20 -10 11 0 20 -4 20 -10 0 -5 6 -10 13 -10 7 0 23 -9 35 -20 12 -11 28
-20 37 -20 8 0 15 -4 15 -9 0 -5 9 -11 20 -14 17 -4 20 -14 20 -71 0 -52 -3
-66 -15 -66 -8 0 -15 4 -15 8 0 5 -16 14 -35 22 -19 8 -35 17 -35 22 0 4 -9 8
-20 8 -11 0 -20 5 -20 10 0 6 -9 10 -19 10 -11 0 -21 3 -23 8 -4 9 -57 41 -80
49 -10 3 -18 9 -18 14 0 5 -9 9 -20 9 -11 0 -20 5 -20 10 0 6 -9 10 -20 10
-11 0 -20 4 -20 8 0 5 -16 14 -35 22 -19 8 -35 17 -35 22 0 4 -5 8 -11 8 -6 0
-17 6 -25 14 -18 18 -19 86 -1 86 8 0 7 4 -3 10 -9 6 -11 10 -3 10 7 0 10 6 7
14 -4 11 0 13 15 9 12 -3 24 -9 27 -14z m624 -459 c0 -259 -1 -270 -19 -270
-11 0 -21 -3 -23 -7 -3 -9 -62 -43 -72 -43 -4 0 -5 120 -4 268 3 266 3 267 26
277 12 5 22 13 22 17 0 5 7 8 15 8 8 0 15 5 15 10 0 6 9 10 20 10 20 0 20 -7
20 -270z m-280 40 c0 -5 9 -10 20 -10 11 0 20 -4 20 -9 0 -5 9 -13 20 -16 19
-6 20 -15 20 -165 0 -153 -1 -158 -20 -153 -11 3 -20 9 -20 14 0 5 -9 9 -20 9
-11 0 -20 5 -20 10 0 6 -9 10 -20 10 -19 0 -20 7 -20 160 0 153 1 160 20 160
11 0 20 -4 20 -10z"/>
</g>

</svg>
