<svg width="287" height="263" viewBox="0 0 287 263" fill="none" xmlns="http://www.w3.org/2000/svg">
<rect x="1" y="92" width="250" height="79" rx="10" fill="#FFF6EE"/>
<path d="M31 111C28.4288 111 25.9154 111.762 23.7776 113.191C21.6398 114.619 19.9735 116.65 18.9896 119.025C18.0056 121.401 17.7482 124.014 18.2498 126.536C18.7514 129.058 19.9895 131.374 21.8076 133.192C23.6257 135.01 25.9421 136.249 28.4638 136.75C30.9856 137.252 33.5994 136.994 35.9749 136.01C38.3503 135.026 40.3806 133.36 41.8091 131.222C43.2376 129.085 44 126.571 44 124C43.9934 120.554 42.6216 117.251 40.1851 114.815C37.7485 112.378 34.4458 111.007 31 111ZM37.1875 121.725L29.8625 128.725C29.6731 128.903 29.4225 129.002 29.1625 129C29.0354 129.002 28.9092 128.978 28.7913 128.931C28.6733 128.884 28.5658 128.814 28.475 128.725L24.8125 125.225C24.7109 125.136 24.6283 125.028 24.5696 124.907C24.5109 124.785 24.4774 124.653 24.471 124.519C24.4647 124.384 24.4856 124.25 24.5325 124.123C24.5795 123.997 24.6515 123.881 24.7443 123.783C24.8371 123.686 24.9486 123.608 25.0723 123.554C25.196 123.5 25.3293 123.472 25.4641 123.471C25.5989 123.471 25.7325 123.497 25.8568 123.549C25.9811 123.602 26.0936 123.678 26.1875 123.775L29.1625 126.612L35.8125 120.275C36.0069 120.105 36.2594 120.017 36.5172 120.03C36.7749 120.042 37.018 120.153 37.1955 120.34C37.3731 120.528 37.4714 120.776 37.4699 121.034C37.4684 121.292 37.3672 121.54 37.1875 121.725Z" fill="#3FCD78"/>
<rect x="55" y="112" width="166" height="13" rx="6.5" fill="#EBC8A8"/>
<rect x="55" y="133" width="108" height="13" rx="6.5" fill="#FEE3CB"/>
<rect width="250" height="79" rx="10" fill="white"/>
<path d="M30 19C27.4288 19 24.9154 19.7624 22.7776 21.1909C20.6398 22.6194 18.9735 24.6497 17.9896 27.0251C17.0056 29.4006 16.7482 32.0144 17.2498 34.5362C17.7514 37.0579 18.9895 39.3743 20.8076 41.1924C22.6257 43.0105 24.9421 44.2486 27.4638 44.7502C29.9856 45.2518 32.5994 44.9944 34.9749 44.0104C37.3503 43.0265 39.3806 41.3602 40.8091 39.2224C42.2376 37.0846 43 34.5712 43 32C42.9934 28.5542 41.6216 25.2515 39.1851 22.8149C36.7485 20.3784 33.4458 19.0066 30 19ZM36.1875 29.725L28.8625 36.725C28.6731 36.9031 28.4225 37.0016 28.1625 37C28.0354 37.0018 27.9092 36.9785 27.7913 36.9313C27.6733 36.8841 27.5658 36.814 27.475 36.725L23.8125 33.225C23.7109 33.1364 23.6283 33.0281 23.5696 32.9067C23.5109 32.7854 23.4774 32.6534 23.471 32.5187C23.4647 32.3841 23.4856 32.2495 23.5325 32.1231C23.5795 31.9968 23.6515 31.8812 23.7443 31.7834C23.8371 31.6856 23.9486 31.6075 24.0723 31.5539C24.196 31.5003 24.3293 31.4723 24.4641 31.4715C24.5989 31.4707 24.7325 31.4972 24.8568 31.5493C24.9811 31.6015 25.0936 31.6783 25.1875 31.775L28.1625 34.6125L34.8125 28.275C35.0069 28.1054 35.2594 28.0174 35.5172 28.0296C35.7749 28.0418 36.018 28.1532 36.1955 28.3404C36.3731 28.5277 36.4714 28.7763 36.4699 29.0343C36.4684 29.2924 36.3672 29.5398 36.1875 29.725Z" fill="#3FCD78"/>
<rect x="54" y="20" width="166" height="13" rx="6.5" fill="#FFE4D0"/>
<rect x="54" y="41" width="108" height="13" rx="6.5" fill="#FEDBD5"/>
<rect x="37.5" y="184.5" width="249" height="78" rx="14.5" stroke="#CE6D54" stroke-dasharray="4 4"/>
<path d="M67 203C64.4288 203 61.9154 203.762 59.7776 205.191C57.6398 206.619 55.9735 208.65 54.9896 211.025C54.0056 213.401 53.7482 216.014 54.2498 218.536C54.7514 221.058 55.9895 223.374 57.8076 225.192C59.6257 227.01 61.9421 228.249 64.4638 228.75C66.9856 229.252 69.5994 228.994 71.9749 228.01C74.3503 227.026 76.3806 225.36 77.8091 223.222C79.2376 221.085 80 218.571 80 216C79.9934 212.554 78.6216 209.251 76.1851 206.815C73.7485 204.378 70.4458 203.007 67 203ZM73.1875 213.725L65.8625 220.725C65.6731 220.903 65.4225 221.002 65.1625 221C65.0354 221.002 64.9092 220.978 64.7913 220.931C64.6733 220.884 64.5658 220.814 64.475 220.725L60.8125 217.225C60.7109 217.136 60.6283 217.028 60.5696 216.907C60.5109 216.785 60.4774 216.653 60.471 216.519C60.4647 216.384 60.4856 216.25 60.5325 216.123C60.5795 215.997 60.6515 215.881 60.7443 215.783C60.8371 215.686 60.9486 215.608 61.0723 215.554C61.196 215.5 61.3293 215.472 61.4641 215.471C61.5989 215.471 61.7325 215.497 61.8568 215.549C61.9811 215.602 62.0936 215.678 62.1875 215.775L65.1625 218.612L71.8125 212.275C72.0069 212.105 72.2594 212.017 72.5172 212.03C72.7749 212.042 73.018 212.153 73.1955 212.34C73.3731 212.528 73.4714 212.776 73.4699 213.034C73.4684 213.292 73.3672 213.54 73.1875 213.725Z" fill="#2C2C2C"/>
<rect x="91" y="204" width="166" height="13" rx="6.5" fill="white"/>
<rect x="91" y="225" width="108" height="13" rx="6.5" fill="#F8F8F8"/>
</svg>
