<svg width="313" height="213" viewBox="0 0 313 213" fill="none" xmlns="http://www.w3.org/2000/svg">
<rect x="17.9268" width="292.359" height="142.519" rx="8.78541" fill="#CDD5EA"/>
<g filter="url(#filter0_d_4_4144)">
<rect x="31.5928" y="26.8447" width="265.027" height="152.281" rx="8.78541" fill="white"/>
</g>
<rect x="224.872" y="12.6904" width="61.0098" height="4.39271" rx="2.19635" fill="white"/>
<rect x="62.3418" y="67.3545" width="93.7111" height="5.36886" rx="2.68443" fill="#E7E7E7"/>
<rect x="230.729" y="69.3066" width="38.5582" height="5.85694" rx="2.92847" fill="#353535"/>
<rect x="62.3418" y="58.0811" width="93.7111" height="5.85694" rx="2.92847" fill="#E7E7E7"/>
<rect x="230.729" y="58.0811" width="38.5582" height="5.85694" rx="2.92847" fill="#E7E7E7"/>
<rect x="62.3418" y="76.1406" width="93.7111" height="5.85694" rx="2.92847" fill="#E7E7E7"/>
<rect x="230.729" y="81.0215" width="38.5582" height="5.85694" rx="2.92847" fill="#E7E7E7"/>
<rect x="62.3418" y="85.4141" width="53.2006" height="5.36886" rx="2.68443" fill="#292929"/>
<rect x="230.729" y="92.7354" width="21.9635" height="5.85694" rx="2.92847" fill="#E7E7E7"/>
<circle cx="36.962" cy="15.13" r="4.39271" fill="#FE5151"/>
<circle cx="49.1642" cy="15.13" r="4.39271" fill="#FFAC2F"/>
<circle cx="61.3654" cy="15.13" r="4.39271" fill="#3FD28C"/>
<line x1="188.295" y1="120.489" x2="274.854" y2="120.489" stroke="#F1F1F1" stroke-width="0.488079"/>
<line x1="187.058" y1="137.21" x2="273.616" y2="137.21" stroke="#F1F1F1" stroke-width="0.488079"/>
<line x1="187.058" y1="112.128" x2="273.616" y2="112.128" stroke="#F1F1F1" stroke-width="0.488079"/>
<line x1="187.058" y1="128.85" x2="273.616" y2="128.85" stroke="#F1F1F1" stroke-width="0.488079"/>
<line x1="187.058" y1="103.768" x2="273.616" y2="103.768" stroke="#F1F1F1" stroke-width="0.488079"/>
<line x1="193.484" y1="95.6516" x2="193.484" y2="142.157" stroke="#F1F1F1" stroke-width="0.488079"/>
<line x1="223.162" y1="95.6516" x2="223.162" y2="142.157" stroke="#F1F1F1" stroke-width="0.488079"/>
<line x1="252.838" y1="95.6516" x2="252.838" y2="142.157" stroke="#F1F1F1" stroke-width="0.488079"/>
<line x1="203.378" y1="95.1289" x2="203.378" y2="141.634" stroke="#F1F1F1" stroke-width="0.488079"/>
<line x1="233.056" y1="95.1289" x2="233.056" y2="141.634" stroke="#F1F1F1" stroke-width="0.488079"/>
<line x1="262.732" y1="95.1289" x2="262.732" y2="141.634" stroke="#F1F1F1" stroke-width="0.488079"/>
<line x1="213.269" y1="95.1289" x2="213.269" y2="141.634" stroke="#F1F1F1" stroke-width="0.488079"/>
<line x1="242.946" y1="95.1289" x2="242.946" y2="141.634" stroke="#F1F1F1" stroke-width="0.488079"/>
<line x1="272.624" y1="95.1289" x2="272.624" y2="141.634" stroke="#F1F1F1" stroke-width="0.488079"/>
<path d="M232.748 125.094C208.386 116.351 192.277 133.352 186.538 144.114C186.2 144.747 186.673 145.487 187.39 145.487H274.06C274.594 145.487 275.028 145.078 275.03 144.544C275.057 138.103 274.85 100.839 266.378 100.839C257.104 100.839 258.174 134.219 232.748 125.094Z" fill="url(#paint0_linear_4_4144)"/>
<path d="M179.454 91V152.526H282.804" stroke="#2562FF"/>
<circle cx="215.374" cy="120.606" r="10.0056" fill="white"/>
<ellipse cx="215.373" cy="120.851" rx="6.58906" ry="6.8331" fill="#5C5CE9"/>
<rect x="148.925" y="119" width="7.07524" height="31.9176" rx="3.53762" fill="#EEEEEE"/>
<rect x="148.925" y="133.127" width="7.07524" height="17.7901" rx="3.53762" fill="#5C5CE9"/>
<rect x="134.437" y="119" width="7.07524" height="31.9176" rx="3.53762" fill="#EEEEEE"/>
<rect x="134.437" y="140.453" width="7.07524" height="10.4648" rx="3.53762" fill="#5C5CE9"/>
<rect x="119.949" y="119" width="7.07524" height="31.9176" rx="3.53762" fill="#EEEEEE"/>
<rect x="119.949" y="126.326" width="7.07524" height="24.5922" rx="3.53762" fill="#5C5CE9"/>
<rect x="105.461" y="119" width="7.07524" height="31.9176" rx="3.53762" fill="#EEEEEE"/>
<rect x="105.461" y="129.465" width="7.07524" height="21.4528" rx="3.53762" fill="#5C5CE9"/>
<rect x="90.9746" y="119" width="7.07524" height="31.9176" rx="3.53762" fill="#EEEEEE"/>
<rect x="90.9746" y="133.127" width="7.07524" height="17.7901" rx="3.53762" fill="#5C5CE9"/>
<rect x="76.4883" y="119" width="7.07524" height="31.9176" rx="3.53762" fill="#EEEEEE"/>
<rect x="76.4883" y="124.756" width="7.07524" height="26.1619" rx="3.53762" fill="#5C5CE9"/>
<rect x="62" y="119" width="7.07524" height="31.9176" rx="3.53762" fill="#EEEEEE"/>
<rect x="62" y="137.836" width="7.07524" height="13.081" rx="3.53762" fill="#5C5CE9"/>
<defs>
<filter id="filter0_d_4_4144" x="0.355748" y="13.6666" width="311.882" height="199.136" filterUnits="userSpaceOnUse" color-interpolation-filters="sRGB">
<feFlood flood-opacity="0" result="BackgroundImageFix"/>
<feColorMatrix in="SourceAlpha" type="matrix" values="0 0 0 0 0 0 0 0 0 0 0 0 0 0 0 0 0 0 127 0" result="hardAlpha"/>
<feOffset dx="-7.80926" dy="10.2496"/>
<feGaussianBlur stdDeviation="11.7139"/>
<feComposite in2="hardAlpha" operator="out"/>
<feColorMatrix type="matrix" values="0 0 0 0 0.941667 0 0 0 0 0.900905 0 0 0 0 0.898507 0 0 0 0.25 0"/>
<feBlend mode="multiply" in2="BackgroundImageFix" result="effect1_dropShadow_4_4144"/>
<feBlend mode="normal" in="SourceGraphic" in2="effect1_dropShadow_4_4144" result="shape"/>
</filter>
<linearGradient id="paint0_linear_4_4144" x1="230.434" y1="91.5654" x2="230.434" y2="145.487" gradientUnits="userSpaceOnUse">
<stop stop-color="#FFE279"/>
<stop offset="1" stop-color="#FFDC60"/>
</linearGradient>
</defs>
</svg>
