<svg width="405" height="298" viewBox="0 0 405 298" fill="none" xmlns="http://www.w3.org/2000/svg">
<g filter="url(#filter0_i_4_4096)">
<rect width="160.383" height="83.453" rx="13.6921" transform="matrix(0.99993 0.0117992 -0.013219 0.999913 29.3203 54.4257)" fill="url(#paint0_linear_4_4096)" fill-opacity="0.93"/>
</g>
<path d="M54.0468 68.0401L52.9498 135.058M115.468 68.9929L114.371 136.011M85.2295 68.5238L84.1325 135.542M146.335 69.4718L145.238 136.49M69.1655 68.2746L68.0686 135.293M130.901 69.2323L129.804 136.25M100.348 68.7584L99.2512 135.777M161.769 69.7112L160.672 136.729M40.3909 122.993L176.146 125.099M40.86 94.3284L176.615 96.4344M40.6218 108.863L176.377 110.968M41.0977 79.7944L176.853 81.9004" stroke="url(#paint1_linear_4_4096)" stroke-width="0.36362"/>
<path d="M42.7874 71.9424L44.2085 74.359L45.7393 72.0062L46.0007 74.8705L47.0841 74.894L46.4509 69.5338L44.2449 72.774L42.1902 69.4417L41.3111 74.7692L42.3945 74.7926L42.7874 71.9424ZM48.6873 73.8884C48.6895 73.7915 48.7131 73.712 48.7582 73.6499C48.8034 73.583 48.8724 73.5336 48.9653 73.5016C49.0583 73.4649 49.1775 73.448 49.3229 73.4512C49.5023 73.4551 49.6714 73.483 49.8302 73.5349C49.9939 73.5869 50.14 73.6628 50.2687 73.7626L50.2787 73.3264C50.2316 73.2671 50.153 73.2048 50.043 73.1394C49.9329 73.074 49.796 73.0177 49.6322 72.9705C49.4733 72.9234 49.2872 72.8976 49.0739 72.893C48.657 72.884 48.3325 72.9715 48.1004 73.1556C47.8682 73.3397 47.7484 73.5941 47.7409 73.9189C47.7357 74.1467 47.7845 74.3417 47.8875 74.504C47.9954 74.6615 48.1381 74.7834 48.3155 74.8697C48.493 74.9559 48.6859 75.0013 48.8943 75.0058C49.0979 75.0102 49.2926 74.9781 49.4785 74.9094C49.6692 74.8407 49.8244 74.735 49.9441 74.5921C50.0686 74.4493 50.1333 74.2713 50.1382 74.058L50.0319 73.6193C50.0283 73.7792 49.9887 73.9166 49.9133 74.0313C49.8381 74.1412 49.7415 74.2264 49.6238 74.2869C49.5061 74.3426 49.3745 74.3688 49.2291 74.3657C49.1273 74.3635 49.0332 74.3445 48.9467 74.3087C48.8652 74.2681 48.801 74.2134 48.7541 74.1445C48.7073 74.0707 48.685 73.9854 48.6873 73.8884ZM48.355 72.521C48.4043 72.4881 48.4803 72.4485 48.5832 72.4023C48.6862 72.356 48.8083 72.3174 48.9496 72.2865C49.091 72.2556 49.2392 72.2419 49.3943 72.2452C49.4961 72.2474 49.588 72.2591 49.6699 72.2803C49.7519 72.3014 49.8214 72.3345 49.8786 72.3793C49.9406 72.4243 49.9854 72.4811 50.0129 72.5496C50.0405 72.6132 50.0533 72.6911 50.0512 72.7832L50.0012 74.957L50.91 74.9767L50.9645 72.6065C50.9698 72.3787 50.9112 72.1859 50.7887 72.028C50.6664 71.8654 50.4946 71.7404 50.2736 71.6532C50.0525 71.566 49.799 71.5193 49.513 71.5131C49.2028 71.5064 48.9206 71.5439 48.6666 71.6257C48.4126 71.7027 48.1974 71.7853 48.0207 71.8736L48.355 72.521ZM52.9681 71.6751L52.0447 71.6551L51.9678 74.9995L52.8911 75.0195L52.9681 71.6751ZM53.9271 72.6778L54.3744 71.8873C54.3086 71.7986 54.2204 71.7313 54.1099 71.6852C54.0043 71.6393 53.8909 71.615 53.7697 71.6124C53.5952 71.6086 53.4241 71.668 53.2564 71.7904C53.0888 71.908 52.9517 72.07 52.8452 72.2762C52.7387 72.4775 52.6824 72.7115 52.6762 72.9781L52.932 73.2455C52.9356 73.0856 52.9582 72.9503 52.9995 72.8396C53.0458 72.7242 53.1109 72.6359 53.1947 72.5747C53.2786 72.5135 53.3787 72.4841 53.495 72.4866C53.5919 72.4887 53.6715 72.5074 53.7338 72.5427C53.801 72.5733 53.8654 72.6183 53.9271 72.6778ZM55.0912 69.3933L54.9607 75.0642L55.8696 75.0839L56.0001 69.4129L55.0912 69.3933ZM57.1753 71.766L55.7039 73.1163L57.251 75.1138L58.3707 75.138L56.8309 73.1407L58.3022 71.7904L57.1753 71.766ZM60.5178 75.2571C60.9201 75.2658 61.266 75.1957 61.5555 75.0468C61.8501 74.8931 62.0882 74.6606 62.2699 74.3494L61.4542 74.0771C61.3536 74.235 61.2272 74.3535 61.075 74.4326C60.9278 74.5071 60.75 74.542 60.5416 74.5375C60.3574 74.5335 60.2008 74.4889 60.0718 74.4037C59.9429 74.3185 59.8462 74.1976 59.7819 74.041C59.7225 73.8845 59.6953 73.6948 59.7005 73.4718C59.7107 73.2393 59.749 73.0461 59.8156 72.8924C59.8872 72.7339 59.9844 72.6172 60.1074 72.5423C60.2353 72.4626 60.3914 72.4248 60.5756 72.4287C60.7258 72.432 60.8559 72.4688 60.9658 72.539C61.0758 72.6093 61.1585 72.7032 61.2139 72.8208C61.2743 72.9385 61.3026 73.0797 61.2988 73.2445C61.298 73.2785 61.2873 73.3219 61.2667 73.3748C61.251 73.4229 61.2332 73.4613 61.2131 73.49L61.4753 73.1611L59.3013 73.1141L59.2879 73.6957L62.2835 73.7605C62.289 73.7315 62.2923 73.6928 62.2934 73.6443C62.2994 73.5959 62.3029 73.5499 62.3039 73.5063C62.3121 73.1476 62.2513 72.8408 62.1214 72.5858C61.9916 72.326 61.7973 72.1278 61.5386 71.9913C61.2848 71.85 60.9737 71.7754 60.6053 71.7674C60.2369 71.7595 59.9154 71.8253 59.6406 71.9648C59.3659 72.0995 59.1504 72.2961 58.9941 72.5546C58.8428 72.8083 58.763 73.1145 58.7548 73.4732C58.7466 73.8271 58.8122 74.1364 58.9516 74.4013C59.096 74.6614 59.3022 74.8671 59.5703 75.0184C59.8384 75.1697 60.1542 75.2493 60.5178 75.2571ZM62.8044 71.8877L62.7862 72.6802L64.851 72.7248L64.8693 71.9324L62.8044 71.8877ZM63.4055 70.7369L63.3018 75.2446L64.2107 75.2642L64.3144 70.7565L63.4055 70.7369ZM65.5385 70.652C65.535 70.8023 65.5879 70.9295 65.697 71.0337C65.8062 71.1379 65.9383 71.1917 66.0934 71.195C66.2485 71.1984 66.3805 71.1503 66.4895 71.0509C66.6033 70.9515 66.662 70.8267 66.6654 70.6764C66.669 70.5213 66.6162 70.3941 66.5069 70.2947C66.4026 70.1906 66.2729 70.1369 66.1178 70.1336C65.9627 70.1302 65.8282 70.1782 65.7144 70.2776C65.6007 70.3721 65.542 70.4969 65.5385 70.652ZM65.6105 71.9484L65.5335 75.2928L66.4497 75.3126L66.5266 71.9682L65.6105 71.9484ZM69.8373 73.3491L69.7904 75.3848L70.7647 75.4059L70.8139 73.2684C70.8231 72.8661 70.7334 72.5514 70.5446 72.3242C70.356 72.0922 70.0629 71.9719 69.6655 71.9633C69.428 71.9582 69.2232 72.0047 69.0512 72.1028C68.8842 72.1962 68.7476 72.3363 68.6415 72.5231L68.6532 72.0142L67.708 71.9937L67.631 75.3382L68.5762 75.3586L68.6231 73.3229C68.6263 73.1823 68.6557 73.0617 68.7114 72.9611C68.7671 72.8604 68.8464 72.7845 68.9494 72.7334C69.0525 72.6775 69.1695 72.6509 69.3004 72.6537C69.4943 72.6579 69.6335 72.7191 69.7181 72.8373C69.8027 72.9556 69.8424 73.1261 69.8373 73.3491ZM71.7089 75.6591C71.7216 75.9503 71.7932 76.2089 71.9238 76.4348C72.0591 76.6656 72.2563 76.8445 72.5152 76.9713C72.7741 77.103 73.0974 77.173 73.4851 77.1814C73.8051 77.1883 74.1022 77.1317 74.3765 77.0115C74.6507 76.8962 74.8709 76.707 75.037 76.4439C75.2079 76.1809 75.2981 75.8434 75.3076 75.4314L75.3829 72.1597L74.4741 72.14L74.3988 75.4117C74.3935 75.6395 74.3456 75.8276 74.2549 75.976C74.169 76.1245 74.0549 76.2335 73.9127 76.3032C73.7753 76.373 73.6291 76.4062 73.474 76.4028C73.3043 76.3992 73.1571 76.3669 73.0325 76.306C72.9078 76.2451 72.8103 76.1606 72.74 76.0524C72.6697 75.949 72.6337 75.8246 72.6322 75.679L71.7089 75.6591ZM71.6879 73.7237C71.6794 74.0921 71.7474 74.4063 71.8917 74.6665C72.0362 74.9218 72.2305 75.1175 72.4747 75.2537C72.7189 75.39 72.9791 75.461 73.2554 75.467C73.5366 75.4731 73.7853 75.413 74.0016 75.2867C74.2228 75.1557 74.397 74.9631 74.5241 74.7088C74.656 74.4547 74.7261 74.1483 74.7343 73.7896C74.7427 73.4261 74.6868 73.1169 74.5666 72.8621C74.4513 72.6026 74.2862 72.4027 74.0712 72.2622C73.861 72.1219 73.6154 72.0487 73.3342 72.0426C73.0579 72.0366 72.7947 72.0964 72.5445 72.2219C72.2943 72.3475 72.0911 72.5371 71.9349 72.7907C71.7788 73.0395 71.6965 73.3505 71.6879 73.7237ZM72.6622 73.7448C72.6669 73.5412 72.712 73.3725 72.7975 73.2385C72.8831 73.0997 72.9971 72.9955 73.1393 72.9258C73.2816 72.8562 73.4327 72.8231 73.5926 72.8265C73.6993 72.8288 73.803 72.8529 73.9037 72.8987C74.0046 72.9397 74.0954 72.9999 74.176 73.0792C74.2615 73.1586 74.3271 73.257 74.3729 73.3744C74.4187 73.4918 74.4398 73.628 74.4362 73.7831C74.4316 73.9867 74.384 74.1578 74.2935 74.2965C74.208 74.4304 74.0965 74.5323 73.9591 74.6021C73.8267 74.6671 73.6902 74.6981 73.5496 74.695C73.3897 74.6916 73.2402 74.652 73.1013 74.5762C72.9625 74.5005 72.8534 74.3939 72.7741 74.2564C72.6949 74.114 72.6576 73.9435 72.6622 73.7448ZM78.9567 74.4264L78.4851 75.0054C78.6083 75.1293 78.7463 75.2463 78.8989 75.3562C79.0566 75.4615 79.2316 75.5477 79.424 75.6149C79.6213 75.6822 79.8387 75.7184 80.0762 75.7236C80.4591 75.7319 80.7618 75.6463 80.9841 75.4668C81.2066 75.2825 81.3217 75.0231 81.3294 74.6887C81.3341 74.4851 81.2918 74.3193 81.2026 74.1913C81.1134 74.0633 80.9922 73.9564 80.839 73.8706C80.6907 73.7801 80.5277 73.699 80.3499 73.6273C80.206 73.5611 80.0763 73.505 79.961 73.4588C79.8505 73.4128 79.7644 73.3625 79.7026 73.3078C79.6458 73.2484 79.6182 73.1823 79.6199 73.1096C79.6218 73.0272 79.6522 72.9672 79.7113 72.9297C79.7753 72.8875 79.8606 72.8675 79.9673 72.8698C80.1272 72.8732 80.2887 72.9179 80.4516 73.0039C80.6193 73.09 80.7623 73.1998 80.8805 73.3332L81.3083 72.7606C81.2041 72.6516 81.0826 72.5569 80.9438 72.4763C80.8051 72.3908 80.654 72.3221 80.4903 72.2701C80.3266 72.218 80.1502 72.19 79.9612 72.1859C79.7382 72.1811 79.5338 72.213 79.3479 72.2817C79.167 72.3457 79.0216 72.4468 78.9118 72.5851C78.802 72.7185 78.7449 72.8846 78.7403 73.0833C78.7355 73.2917 78.7776 73.4648 78.8665 73.6025C78.9605 73.7355 79.0792 73.8447 79.2227 73.9303C79.3664 74.0109 79.5151 74.0821 79.6688 74.1436C79.8324 74.2005 79.9669 74.2543 80.0725 74.3051C80.178 74.3558 80.2567 74.4133 80.3086 74.4775C80.3654 74.5369 80.3928 74.6102 80.3908 74.6975C80.3886 74.7944 80.3528 74.8712 80.2836 74.9279C80.2146 74.9798 80.117 75.0043 79.991 75.0016C79.894 74.9995 79.7903 74.9779 79.6797 74.9367C79.5739 74.8956 79.4614 74.835 79.342 74.7548C79.2227 74.6698 79.0943 74.5603 78.9567 74.4264ZM81.7878 72.2981L81.7695 73.0906L83.8344 73.1352L83.8526 72.3428L81.7878 72.2981ZM82.3889 71.1473L82.2852 75.655L83.194 75.6746L83.2978 71.1669L82.3889 71.1473ZM85.4591 72.3775L84.5357 72.3575L84.4587 75.7019L85.3821 75.7219L85.4591 72.3775ZM86.418 73.3802L86.8654 72.5897C86.7996 72.501 86.7114 72.4336 86.6009 72.3876C86.4953 72.3417 86.3819 72.3174 86.2607 72.3148C86.0862 72.311 85.9151 72.3704 85.7474 72.4928C85.5798 72.6104 85.4427 72.7724 85.3361 72.9786C85.2297 73.1799 85.1733 73.4139 85.1672 73.6805L85.4229 73.9479C85.4266 73.788 85.4491 73.6527 85.4905 73.542C85.5368 73.4266 85.6018 73.3383 85.6857 73.2771C85.7696 73.2159 85.8696 73.1865 85.986 73.189C86.0829 73.1911 86.1625 73.2098 86.2247 73.2451C86.2919 73.2757 86.3564 73.3207 86.418 73.3802ZM88.1664 74.7419C88.1686 74.645 88.1922 74.5655 88.2373 74.5034C88.2825 74.4365 88.3515 74.387 88.4444 74.3551C88.5374 74.3183 88.6566 74.3015 88.802 74.3046C88.9814 74.3085 89.1504 74.3364 89.3093 74.3884C89.473 74.4404 89.6191 74.5163 89.7478 74.6161L89.7578 74.1798C89.7107 74.1206 89.6321 74.0583 89.5221 73.9929C89.412 73.9275 89.2751 73.8712 89.1113 73.824C88.9524 73.7769 88.7662 73.751 88.553 73.7464C88.1361 73.7374 87.8116 73.825 87.5794 74.0091C87.3473 74.1932 87.2275 74.4476 87.22 74.7724C87.2147 75.0002 87.2636 75.1952 87.3666 75.3575C87.4745 75.515 87.6172 75.6369 87.7946 75.7231C87.9721 75.8094 88.165 75.8548 88.3734 75.8593C88.577 75.8637 88.7717 75.8315 88.9576 75.7628C89.1483 75.6942 89.3035 75.5885 89.4232 75.4456C89.5477 75.3028 89.6124 75.1247 89.6173 74.9115L89.511 74.4727C89.5073 74.6327 89.4678 74.77 89.3924 74.8848C89.3172 74.9947 89.2206 75.0799 89.1028 75.1404C88.9852 75.196 88.8536 75.2223 88.7082 75.2192C88.6064 75.217 88.5123 75.1979 88.4258 75.1621C88.3443 75.1216 88.2801 75.0668 88.2332 74.9979C88.1864 74.9242 88.1641 74.8388 88.1664 74.7419ZM87.8341 73.3745C87.8834 73.3416 87.9594 73.302 88.0623 73.2557C88.1652 73.2095 88.2874 73.1709 88.4287 73.14C88.5701 73.1091 88.7183 73.0953 88.8734 73.0987C88.9752 73.1009 89.0671 73.1126 89.149 73.1337C89.231 73.1549 89.3005 73.1879 89.3577 73.2328C89.4197 73.2778 89.4645 73.3345 89.492 73.403C89.5196 73.4667 89.5324 73.5445 89.5303 73.6366L89.4802 75.8105L90.3891 75.8301L90.4436 73.46C90.4489 73.2322 90.3903 73.0393 90.2678 72.8815C90.1454 72.7188 89.9737 72.5939 89.7527 72.5067C89.5316 72.4195 89.2781 72.3727 88.9921 72.3666C88.6819 72.3599 88.3997 72.3974 88.1457 72.4792C87.8917 72.5562 87.6764 72.6388 87.4998 72.7271L87.8341 73.3745ZM91.0948 72.4993L91.0766 73.2918L93.1415 73.3364L93.1597 72.544L91.0948 72.4993ZM91.696 71.3485L91.5923 75.8562L92.5011 75.8758L92.6048 71.3681L91.696 71.3485ZM95.3419 76.01C95.7442 76.0187 96.0901 75.9485 96.3797 75.7996C96.6742 75.646 96.9123 75.4135 97.0941 75.1022L96.2783 74.83C96.1777 74.9878 96.0513 75.1063 95.8992 75.1855C95.752 75.2599 95.5741 75.2948 95.3657 75.2903C95.1815 75.2864 95.0249 75.2417 94.896 75.1565C94.767 75.0713 94.6704 74.9504 94.6061 74.7938C94.5466 74.6374 94.5195 74.4476 94.5246 74.2247C94.5348 73.9921 94.5732 73.799 94.6398 73.6452C94.7113 73.4868 94.8086 73.3701 94.9315 73.2951C95.0594 73.2154 95.2155 73.1776 95.3997 73.1816C95.55 73.1848 95.68 73.2216 95.79 73.2919C95.8999 73.3621 95.9826 73.456 96.0381 73.5736C96.0984 73.6913 96.1267 73.8326 96.1229 73.9974C96.1221 74.0313 96.1114 74.0747 96.0908 74.1276C96.0752 74.1758 96.0573 74.2142 96.0372 74.2428L96.2994 73.9139L94.1255 73.8669L94.1121 74.4485L97.1076 74.5133C97.1131 74.4843 97.1164 74.4456 97.1176 74.3971C97.1235 74.3488 97.127 74.3028 97.128 74.2591C97.1363 73.9005 97.0754 73.5936 96.9455 73.3387C96.8157 73.0788 96.6214 72.8807 96.3627 72.7441C96.1089 72.6029 95.7978 72.5282 95.4295 72.5203C95.0611 72.5123 94.7395 72.5781 94.4647 72.7176C94.19 72.8523 93.9745 73.0489 93.8183 73.3074C93.6669 73.5612 93.5872 73.8674 93.5789 74.2261C93.5708 74.5799 93.6364 74.8892 93.7758 75.1541C93.9201 75.4143 94.1263 75.62 94.3944 75.7712C94.6625 75.9225 94.9784 76.0021 95.3419 76.01ZM97.8152 76.2235C97.8279 76.5147 97.8996 76.7733 98.0302 76.9992C98.1655 77.23 98.3626 77.4088 98.6216 77.5357C98.8804 77.6674 99.2038 77.7374 99.5915 77.7458C99.9114 77.7527 100.209 77.6961 100.483 77.5759C100.757 77.4606 100.977 77.2714 101.143 77.0083C101.314 76.7452 101.405 76.4077 101.414 75.9957L101.489 72.724L100.58 72.7044L100.505 75.9761C100.5 76.2039 100.452 76.392 100.361 76.5404C100.275 76.6888 100.161 76.7979 100.019 76.8676C99.8817 76.9373 99.7354 76.9706 99.5803 76.9672C99.4107 76.9635 99.2635 76.9313 99.1388 76.8704C99.0141 76.8095 98.9167 76.7249 98.8464 76.6167C98.7761 76.5134 98.7401 76.3889 98.7386 76.2434L97.8152 76.2235ZM97.7943 74.2881C97.7858 74.6565 97.8538 74.9707 97.9981 75.2309C98.1426 75.4861 98.3369 75.6819 98.5811 75.8181C98.8253 75.9543 99.0855 76.0254 99.3618 76.0314C99.643 76.0375 99.8917 75.9774 100.108 75.8511C100.329 75.7201 100.503 75.5275 100.63 75.2732C100.762 75.019 100.832 74.7126 100.841 74.3539C100.849 73.9904 100.793 73.6813 100.673 73.4265C100.558 73.167 100.393 72.967 100.178 72.8266C99.9674 72.6863 99.7217 72.6131 99.4406 72.607C99.1643 72.601 98.9011 72.6608 98.6509 72.7863C98.4006 72.9118 98.1974 73.1014 98.0413 73.3551C97.8852 73.6039 97.8029 73.9149 97.7943 74.2881ZM98.7686 74.3092C98.7733 74.1056 98.8184 73.9368 98.9039 73.8029C98.9895 73.6641 99.1035 73.5599 99.2457 73.4902C99.3879 73.4206 99.539 73.3875 99.699 73.3909C99.8056 73.3932 99.9093 73.4173 100.01 73.4631C100.111 73.5041 100.202 73.5642 100.282 73.6436C100.368 73.723 100.433 73.8214 100.479 73.9388C100.525 74.0562 100.546 74.1924 100.543 74.3475C100.538 74.5511 100.49 74.7222 100.4 74.8609C100.314 74.9948 100.203 75.0967 100.066 75.1664C99.9331 75.2315 99.7966 75.2625 99.656 75.2594C99.4961 75.256 99.3466 75.2164 99.2077 75.1406C99.0688 75.0649 98.9598 74.9583 98.8805 74.8208C98.8013 74.6784 98.764 74.5079 98.7686 74.3092ZM105.769 72.8165L104.788 72.7953L103.673 75.419L104.138 75.4436L103.123 72.7593L102.076 72.7367L103.395 75.7767L102.507 77.6924L103.474 77.7133L105.769 72.8165Z" fill="#353E6C"/>
<path d="M157.109 74.2096L158.338 73.9161L158.244 78.0021L159.255 78.024L159.374 72.8474L157.131 73.2717L157.109 74.2096ZM164.514 76.4937C164.522 76.1447 164.457 75.8451 164.317 75.5947C164.182 75.3397 164 75.1418 163.77 75.001C163.541 74.8603 163.288 74.7869 163.012 74.7809C162.861 74.7777 162.713 74.789 162.567 74.815C162.426 74.8362 162.292 74.8793 162.164 74.9445L162.494 73.9041L164.493 73.9473L164.514 73.0458L161.744 72.9859L160.98 75.8354C161.156 75.7422 161.323 75.6731 161.479 75.628C161.64 75.5781 161.796 75.5451 161.947 75.529C162.098 75.508 162.241 75.499 162.377 75.5019C162.561 75.5059 162.73 75.5435 162.883 75.6147C163.042 75.6811 163.166 75.7784 163.255 75.9064C163.349 76.0345 163.394 76.1907 163.39 76.3749C163.385 76.5639 163.34 76.7229 163.255 76.852C163.17 76.9763 163.049 77.0706 162.892 77.1351C162.74 77.1998 162.555 77.2297 162.337 77.225C162.197 77.222 162.049 77.1921 161.895 77.1354C161.742 77.0739 161.593 76.9931 161.45 76.893C161.312 76.793 161.183 76.6812 161.065 76.5574L160.559 77.3539C160.697 77.4975 160.856 77.6318 161.037 77.757C161.219 77.8773 161.43 77.9764 161.671 78.0544C161.916 78.1324 162.194 78.1748 162.504 78.1815C162.751 78.1869 162.992 78.1581 163.226 78.0953C163.461 78.0325 163.674 77.9328 163.866 77.7963C164.058 77.6599 164.213 77.4838 164.329 77.2681C164.446 77.0524 164.508 76.7942 164.514 76.4937ZM165.229 74.2324C165.224 74.465 165.275 74.6819 165.382 74.8831C165.493 75.0795 165.647 75.238 165.844 75.3586C166.04 75.4792 166.261 75.5422 166.508 75.5476C166.76 75.553 166.985 75.4997 167.181 75.3875C167.383 75.2755 167.541 75.1237 167.657 74.9323C167.773 74.736 167.834 74.5215 167.839 74.2888C167.845 74.0465 167.794 73.8271 167.687 73.6309C167.58 73.4346 167.429 73.2785 167.233 73.1628C167.041 73.0422 166.82 72.9793 166.568 72.9738C166.32 72.9685 166.096 73.0218 165.895 73.1338C165.693 73.241 165.532 73.3903 165.412 73.5817C165.296 73.7731 165.235 73.99 165.229 74.2324ZM166.015 74.2494C166.017 74.1476 166.041 74.056 166.086 73.9745C166.132 73.893 166.194 73.8289 166.273 73.7821C166.351 73.7305 166.444 73.7058 166.551 73.7081C166.657 73.7104 166.746 73.739 166.818 73.7939C166.894 73.8441 166.953 73.9108 166.995 73.9942C167.037 74.0775 167.057 74.1701 167.054 74.2718C167.052 74.3688 167.028 74.4604 166.982 74.5467C166.937 74.6282 166.875 74.6923 166.796 74.7391C166.722 74.786 166.632 74.8083 166.525 74.806C166.419 74.8037 166.327 74.7774 166.251 74.7273C166.174 74.6771 166.115 74.6104 166.074 74.5271C166.032 74.4389 166.012 74.3463 166.015 74.2494ZM168.474 77.0522C168.469 77.2897 168.52 77.5065 168.627 77.7028C168.738 77.8992 168.892 78.0577 169.088 78.1784C169.285 78.299 169.506 78.362 169.753 78.3673C170.005 78.3728 170.23 78.3194 170.426 78.2073C170.628 78.0953 170.786 77.9435 170.902 77.752C171.018 77.5606 171.079 77.3461 171.084 77.1086C171.09 76.8711 171.039 76.6542 170.932 76.4579C170.825 76.2568 170.674 76.0983 170.477 75.9825C170.286 75.862 170.065 75.799 169.813 75.7936C169.565 75.7882 169.341 75.8416 169.14 75.9536C168.938 76.0608 168.777 76.2125 168.656 76.4087C168.54 76.6002 168.48 76.8146 168.474 77.0522ZM169.259 77.0691C169.262 76.9673 169.286 76.8757 169.331 76.7943C169.377 76.7128 169.439 76.6487 169.518 76.6019C169.596 76.5551 169.689 76.5329 169.796 76.5352C169.902 76.5375 169.991 76.5636 170.063 76.6137C170.139 76.6638 170.198 76.7306 170.24 76.8139C170.282 76.8973 170.302 76.9898 170.299 77.0916C170.297 77.1885 170.273 77.2802 170.227 77.3665C170.182 77.4479 170.12 77.512 170.041 77.5588C169.967 77.6057 169.877 77.628 169.77 77.6257C169.664 77.6234 169.572 77.5972 169.496 77.5471C169.419 77.4969 169.36 77.4302 169.319 77.3468C169.277 77.2586 169.257 77.1661 169.259 77.0691ZM169.597 73.1557L165.772 78.1649L166.724 78.1854L170.549 73.1763L169.597 73.1557Z" fill="#45B751"/>
<path d="M175.566 73.2254L177.964 76.2422L173.152 76.2375L175.566 73.2254Z" fill="#45B751"/>
<path d="M69.7562 100.417C58.2275 93.7653 45.1723 96.2607 40.0858 98.34L39.7328 120.349L175.396 123.185L175.624 108.963C172.723 103.821 163.582 95.2504 150.226 102.099C133.531 110.661 123.357 106.693 115.467 99.9158C109.154 94.4936 100.937 97.8561 97.6172 100.215C93.1338 103.054 81.2849 107.069 69.7562 100.417Z" fill="url(#paint2_linear_4_4096)"/>
<path d="M40.0858 98.3359C45.1606 96.2597 58.1857 93.7676 69.6876 100.41C81.1896 107.052 93.0112 103.042 97.4842 100.207C100.796 97.8517 108.995 94.494 115.292 99.9081C123.165 106.676 133.314 110.637 149.971 102.088C163.297 95.2487 172.416 103.807 175.311 108.941" stroke="#24B8D2" stroke-width="0.72724" stroke-linecap="round" stroke-linejoin="round"/>
<path d="M93.5307 103.782C67.0049 57.5575 41.0764 111.199 40.016 111.18L39.9097 116.726C39.7733 123.835 45.4254 129.699 52.5339 129.826L162.299 131.777C169.408 131.903 175.281 126.243 175.417 119.135L175.791 99.6223C162.14 122.089 154.316 117.052 152.111 111.725C146.977 100.928 133.252 83.7711 119.423 101.515C105.595 119.258 96.3996 110.419 93.5307 103.782Z" fill="url(#paint3_linear_4_4096)"/>
<path d="M40.1504 111.152C41.2082 111.171 67.076 57.5871 93.537 103.761C96.3989 110.391 105.572 119.22 119.367 101.495C133.163 83.7708 146.855 100.909 151.977 111.694C154.177 117.015 161.981 122.047 175.601 99.6038" stroke="#7F7CFF" stroke-width="0.727241" stroke-linecap="round" stroke-linejoin="round"/>
<g filter="url(#filter1_i_4_4096)">
<rect width="130.384" height="63.8264" rx="13.6921" transform="matrix(0.999992 0.00412006 -0.00554003 0.999985 202.207 71.0459)" fill="url(#paint4_linear_4_4096)" fill-opacity="0.93"/>
</g>
<path d="M261.514 100.176L265.226 100.262C265.105 100.653 264.936 101.013 264.719 101.34C264.501 101.668 264.236 101.957 263.922 102.208C263.62 102.46 263.258 102.655 262.836 102.793C262.414 102.919 261.938 102.975 261.409 102.963C260.609 102.944 259.893 102.743 259.262 102.359C258.644 101.975 258.158 101.446 257.805 100.773C257.452 100.088 257.287 99.3018 257.309 98.4155C257.331 97.517 257.535 96.7458 257.92 96.102C258.317 95.4585 258.841 94.9719 259.489 94.6421C260.138 94.3 260.85 94.138 261.626 94.156C262.45 94.1752 263.141 94.3698 263.699 94.7399C264.269 95.098 264.707 95.5639 265.013 96.1375L267.298 94.8789C266.919 94.2667 266.458 93.7387 265.914 93.295C265.384 92.8393 264.764 92.4801 264.056 92.2173C263.361 91.9548 262.57 91.8133 261.684 91.7927C260.687 91.7696 259.76 91.9081 258.902 92.2084C258.045 92.5087 257.295 92.947 256.653 93.5232C256.011 94.0995 255.501 94.802 255.123 95.6307C254.758 96.4473 254.564 97.3542 254.539 98.3512C254.515 99.3482 254.658 100.269 254.97 101.114C255.294 101.959 255.756 102.69 256.357 103.307C256.97 103.925 257.691 104.41 258.52 104.762C259.361 105.114 260.28 105.301 261.277 105.324C262.336 105.349 263.282 105.18 264.116 104.818C264.95 104.455 265.652 103.948 266.223 103.296C266.805 102.633 267.237 101.867 267.517 100.999C267.809 100.131 267.949 99.2046 267.936 98.219L261.566 98.0711L261.514 100.176ZM272.254 96.7306L269.91 96.6761L269.701 105.169L272.046 105.224L272.254 96.7306ZM274.686 99.281L275.825 97.2754C275.658 97.0498 275.435 96.8784 275.154 96.761C274.886 96.6439 274.598 96.5818 274.29 96.5747C273.847 96.5644 273.413 96.7144 272.986 97.0247C272.56 97.3227 272.211 97.7333 271.94 98.2566C271.669 98.7676 271.525 99.3615 271.508 100.039L272.156 100.719C272.166 100.312 272.224 99.9689 272.329 99.6881C272.448 99.3953 272.613 99.1713 272.826 99.0161C273.04 98.861 273.294 98.7868 273.589 98.7937C273.835 98.7994 274.037 98.8472 274.195 98.9371C274.366 99.015 274.529 99.1296 274.686 99.281ZM276.157 101.07C276.135 101.944 276.319 102.724 276.709 103.411C277.111 104.085 277.658 104.615 278.351 105.001C279.056 105.386 279.857 105.59 280.756 105.611C281.654 105.632 282.459 105.466 283.17 105.113C283.893 104.76 284.466 104.256 284.888 103.601C285.323 102.933 285.552 102.163 285.573 101.289C285.595 100.403 285.405 99.6224 285.003 98.948C284.613 98.2739 284.065 97.7439 283.36 97.358C282.668 96.9725 281.872 96.7693 280.974 96.7484C280.075 96.7275 279.264 96.8934 278.541 97.2461C277.831 97.5991 277.258 98.103 276.823 98.758C276.401 99.4132 276.178 100.184 276.157 101.07ZM278.594 101.127C278.606 100.647 278.715 100.224 278.921 99.8597C279.139 99.4953 279.423 99.2186 279.772 99.0297C280.122 98.8408 280.506 98.7512 280.924 98.7609C281.343 98.7706 281.722 98.8779 282.062 99.0829C282.402 99.2878 282.665 99.5772 282.853 99.9511C283.054 100.325 283.148 100.752 283.136 101.232C283.124 101.712 283.009 102.135 282.791 102.499C282.585 102.851 282.307 103.128 281.957 103.329C281.608 103.518 281.224 103.608 280.805 103.598C280.387 103.588 280.008 103.481 279.668 103.276C279.328 103.059 279.058 102.769 278.858 102.408C278.67 102.034 278.582 101.607 278.594 101.127ZM285.946 97.0486L289.896 106.211L292.687 100.863L295.287 106.336L299.664 97.3673L297.135 97.3085L295.135 101.991L292.775 96.5607L290.243 101.859L288.494 97.1078L285.946 97.0486Z" fill="#303030"/>
<path d="M256.266 110.44L257.911 113.248L259.693 110.519L259.991 113.845L261.248 113.874L260.523 107.65L257.956 111.408L255.577 107.535L254.547 113.719L255.804 113.748L256.266 110.44ZM262.901 112.705C262.903 112.592 262.931 112.5 262.983 112.428C263.036 112.351 263.116 112.293 263.224 112.256C263.332 112.214 263.47 112.195 263.639 112.198C263.847 112.203 264.044 112.236 264.228 112.297C264.418 112.357 264.588 112.446 264.737 112.562L264.749 112.055C264.695 111.987 264.603 111.914 264.476 111.838C264.348 111.762 264.189 111.696 263.999 111.641C263.815 111.586 263.599 111.556 263.351 111.55C262.867 111.539 262.49 111.64 262.22 111.853C261.951 112.066 261.811 112.362 261.802 112.739C261.795 113.003 261.852 113.229 261.971 113.418C262.096 113.601 262.261 113.743 262.467 113.843C262.673 113.944 262.897 113.997 263.139 114.003C263.375 114.008 263.601 113.971 263.817 113.892C264.039 113.812 264.219 113.69 264.358 113.524C264.503 113.359 264.579 113.152 264.585 112.904L264.462 112.395C264.458 112.581 264.411 112.74 264.324 112.873C264.236 113.001 264.124 113.099 263.987 113.169C263.85 113.234 263.698 113.264 263.529 113.26C263.411 113.257 263.301 113.235 263.201 113.193C263.106 113.146 263.032 113.082 262.978 113.002C262.923 112.917 262.898 112.817 262.901 112.705ZM262.517 111.117C262.575 111.079 262.663 111.033 262.782 110.979C262.902 110.926 263.044 110.881 263.208 110.846C263.372 110.81 263.544 110.794 263.724 110.799C263.843 110.801 263.949 110.815 264.044 110.84C264.139 110.865 264.22 110.903 264.286 110.955C264.358 111.008 264.41 111.073 264.442 111.153C264.474 111.227 264.489 111.317 264.486 111.424L264.424 113.948L265.479 113.972L265.547 111.221C265.553 110.956 265.485 110.732 265.344 110.549C265.202 110.36 265.003 110.215 264.746 110.113C264.49 110.011 264.195 109.957 263.863 109.949C263.503 109.94 263.176 109.984 262.881 110.078C262.586 110.167 262.336 110.262 262.13 110.365L262.517 111.117ZM267.663 110.138L266.591 110.114L266.496 113.996L267.568 114.021L267.663 110.138ZM268.775 111.304L269.296 110.387C269.219 110.284 269.117 110.206 268.989 110.152C268.866 110.099 268.735 110.07 268.594 110.067C268.392 110.062 268.193 110.131 267.998 110.273C267.803 110.409 267.644 110.597 267.52 110.836C267.396 111.07 267.33 111.341 267.322 111.651L267.619 111.962C267.623 111.776 267.649 111.619 267.698 111.49C267.752 111.357 267.827 111.254 267.925 111.183C268.022 111.112 268.139 111.078 268.274 111.082C268.386 111.084 268.478 111.106 268.551 111.147C268.629 111.183 268.703 111.235 268.775 111.304ZM269.921 107.488L269.759 114.072L270.815 114.096L270.976 107.513L269.921 107.488ZM272.336 110.247L270.626 111.812L272.418 114.134L273.718 114.164L271.934 111.842L273.645 110.277L272.336 110.247ZM275.999 114.301C276.466 114.312 276.868 114.231 277.205 114.059C277.547 113.881 277.824 113.612 278.035 113.251L277.089 112.933C276.972 113.116 276.825 113.254 276.648 113.345C276.477 113.431 276.27 113.472 276.028 113.466C275.815 113.461 275.633 113.409 275.483 113.31C275.334 113.21 275.222 113.07 275.147 112.888C275.079 112.706 275.048 112.486 275.054 112.227C275.066 111.957 275.111 111.733 275.189 111.555C275.272 111.371 275.385 111.236 275.528 111.149C275.677 111.056 275.858 111.013 276.072 111.018C276.246 111.022 276.397 111.065 276.525 111.147C276.652 111.228 276.748 111.338 276.812 111.474C276.882 111.611 276.915 111.775 276.91 111.966C276.909 112.006 276.896 112.056 276.872 112.117C276.854 112.173 276.833 112.218 276.81 112.251L277.115 111.87L274.591 111.811L274.575 112.486L278.052 112.567C278.059 112.533 278.062 112.488 278.064 112.432C278.071 112.376 278.075 112.323 278.076 112.272C278.086 111.856 278.016 111.499 277.866 111.203C277.716 110.901 277.491 110.671 277.191 110.512C276.896 110.347 276.535 110.26 276.107 110.25C275.68 110.24 275.306 110.316 274.987 110.477C274.668 110.633 274.417 110.861 274.236 111.161C274.059 111.455 273.966 111.811 273.956 112.227C273.946 112.638 274.021 112.997 274.183 113.305C274.35 113.607 274.589 113.846 274.9 114.022C275.211 114.199 275.577 114.291 275.999 114.301ZM278.449 110.389L278.427 111.309L280.824 111.365L280.846 110.445L278.449 110.389ZM279.149 109.054L279.021 114.287L280.076 114.312L280.204 109.079L279.149 109.054ZM281.415 108.955C281.41 109.129 281.471 109.277 281.598 109.398C281.724 109.519 281.878 109.582 282.058 109.586C282.238 109.59 282.391 109.535 282.518 109.419C282.65 109.304 282.719 109.159 282.723 108.985C282.727 108.805 282.666 108.657 282.54 108.542C282.419 108.421 282.268 108.358 282.088 108.354C281.908 108.35 281.752 108.405 281.62 108.52C281.487 108.63 281.419 108.775 281.415 108.955ZM281.496 110.46L281.4 114.342L282.464 114.367L282.559 110.484L281.496 110.46ZM286.189 112.089L286.131 114.452L287.262 114.478L287.323 111.997C287.335 111.53 287.231 111.164 287.012 110.9C286.794 110.631 286.454 110.49 285.992 110.48C285.717 110.473 285.479 110.527 285.279 110.641C285.085 110.749 284.926 110.911 284.803 111.128L284.817 110.537L283.72 110.511L283.624 114.394L284.722 114.419L284.78 112.056C284.784 111.893 284.818 111.753 284.883 111.636C284.948 111.52 285.04 111.432 285.16 111.372C285.279 111.308 285.415 111.277 285.567 111.281C285.792 111.286 285.954 111.357 286.052 111.495C286.15 111.632 286.196 111.83 286.189 112.089ZM288.147 114.769C288.161 115.107 288.244 115.408 288.395 115.67C288.552 115.938 288.78 116.146 289.081 116.294C289.381 116.448 289.756 116.529 290.206 116.54C290.578 116.549 290.923 116.483 291.241 116.344C291.56 116.211 291.816 115.992 292.009 115.687C292.208 115.382 292.313 114.99 292.325 114.512L292.419 110.713L291.364 110.689L291.27 114.487C291.264 114.752 291.208 114.97 291.102 115.142C291.002 115.314 290.869 115.441 290.704 115.521C290.545 115.602 290.375 115.64 290.195 115.636C289.998 115.631 289.827 115.594 289.682 115.523C289.538 115.452 289.425 115.353 289.343 115.228C289.262 115.108 289.22 114.963 289.219 114.794L288.147 114.769ZM288.126 112.522C288.116 112.95 288.194 113.315 288.361 113.617C288.528 113.914 288.753 114.142 289.037 114.3C289.32 114.459 289.622 114.542 289.943 114.549C290.269 114.557 290.558 114.487 290.809 114.341C291.066 114.19 291.269 113.966 291.417 113.671C291.57 113.377 291.652 113.021 291.663 112.605C291.673 112.182 291.609 111.823 291.47 111.528C291.336 111.226 291.145 110.994 290.896 110.83C290.652 110.667 290.367 110.581 290.04 110.574C289.72 110.566 289.414 110.635 289.123 110.78C288.833 110.926 288.596 111.145 288.415 111.44C288.233 111.728 288.137 112.089 288.126 112.522ZM289.257 112.549C289.263 112.312 289.316 112.116 289.415 111.961C289.515 111.8 289.647 111.679 289.813 111.599C289.978 111.518 290.153 111.48 290.339 111.484C290.463 111.487 290.583 111.515 290.7 111.569C290.817 111.617 290.922 111.687 291.016 111.779C291.115 111.871 291.191 111.986 291.244 112.122C291.297 112.258 291.321 112.416 291.317 112.596C291.311 112.833 291.255 113.031 291.15 113.192C291.05 113.348 290.921 113.466 290.761 113.546C290.607 113.622 290.449 113.657 290.286 113.654C290.1 113.649 289.927 113.603 289.765 113.515C289.604 113.427 289.478 113.303 289.386 113.143C289.294 112.977 289.251 112.779 289.257 112.549ZM295.543 109.849L297.13 109.886L297.012 114.705L298.219 114.733L298.337 109.914L299.932 109.951L299.959 108.862L295.57 108.76L295.543 109.849ZM300.89 110.91L299.818 110.885L299.722 114.768L300.794 114.793L300.89 110.91ZM302.001 112.076L302.522 111.159C302.446 111.056 302.344 110.978 302.215 110.924C302.093 110.871 301.961 110.842 301.821 110.839C301.618 110.834 301.419 110.903 301.224 111.045C301.03 111.181 300.87 111.369 300.746 111.608C300.622 111.841 300.556 112.113 300.549 112.422L300.845 112.733C300.85 112.548 300.876 112.391 300.924 112.262C300.978 112.128 301.054 112.026 301.151 111.955C301.249 111.884 301.365 111.85 301.5 111.853C301.613 111.856 301.705 111.878 301.777 111.919C301.855 111.955 301.93 112.007 302.001 112.076ZM303.817 113.655C303.82 113.543 303.848 113.451 303.9 113.379C303.953 113.301 304.033 113.244 304.141 113.207C304.249 113.164 304.387 113.145 304.556 113.149C304.764 113.154 304.961 113.186 305.145 113.247C305.335 113.308 305.504 113.396 305.654 113.512L305.666 113.006C305.611 112.937 305.52 112.864 305.393 112.788C305.265 112.712 305.106 112.647 304.916 112.591C304.732 112.537 304.516 112.506 304.268 112.5C303.784 112.489 303.407 112.59 303.137 112.803C302.868 113.017 302.728 113.312 302.719 113.689C302.712 113.953 302.769 114.18 302.888 114.368C303.013 114.552 303.178 114.693 303.384 114.794C303.59 114.894 303.814 114.947 304.056 114.953C304.292 114.958 304.518 114.922 304.734 114.842C304.956 114.763 305.136 114.64 305.275 114.475C305.42 114.309 305.496 114.103 305.502 113.855L305.379 113.345C305.374 113.531 305.328 113.69 305.241 113.824C305.153 113.951 305.041 114.05 304.904 114.12C304.767 114.184 304.614 114.214 304.446 114.21C304.327 114.208 304.218 114.185 304.118 114.144C304.023 114.096 303.949 114.033 303.895 113.953C303.84 113.867 303.815 113.768 303.817 113.655ZM303.434 112.067C303.491 112.029 303.58 111.983 303.699 111.93C303.819 111.876 303.961 111.832 304.125 111.796C304.289 111.761 304.461 111.745 304.641 111.749C304.759 111.752 304.866 111.765 304.961 111.79C305.056 111.815 305.137 111.853 305.203 111.906C305.275 111.958 305.327 112.024 305.359 112.103C305.391 112.177 305.406 112.268 305.403 112.375L305.341 114.898L306.396 114.923L306.464 112.171C306.47 111.907 306.402 111.683 306.261 111.499C306.119 111.31 305.92 111.165 305.663 111.063C305.407 110.962 305.112 110.907 304.78 110.899C304.42 110.891 304.093 110.934 303.798 111.028C303.503 111.117 303.253 111.213 303.047 111.315L303.434 112.067ZM307.179 111.056L307.157 111.976L309.587 112.033L309.61 111.113L307.179 111.056ZM309.531 109.506L310.016 108.698C309.966 108.641 309.898 108.58 309.809 108.516C309.726 108.452 309.623 108.399 309.5 108.357C309.378 108.309 309.229 108.283 309.055 108.279C308.762 108.272 308.513 108.323 308.308 108.431C308.103 108.533 307.947 108.684 307.841 108.884C307.734 109.085 307.678 109.334 307.67 109.632L307.539 114.949L308.595 114.974L308.719 109.901C308.723 109.755 308.743 109.634 308.779 109.54C308.815 109.445 308.862 109.378 308.919 109.34C308.982 109.297 309.056 109.276 309.14 109.278C309.208 109.279 309.275 109.298 309.341 109.333C309.414 109.363 309.477 109.421 309.531 109.506ZM309.932 111.12L309.91 112.04L312.34 112.097L312.363 111.177L309.932 111.12ZM312.284 109.57L312.769 108.762C312.719 108.705 312.651 108.644 312.562 108.58C312.479 108.516 312.376 108.463 312.254 108.421C312.131 108.373 311.982 108.347 311.808 108.343C311.515 108.336 311.266 108.387 311.061 108.495C310.856 108.597 310.7 108.748 310.594 108.948C310.487 109.149 310.431 109.398 310.423 109.696L310.293 115.013L311.348 115.038L311.472 109.965C311.476 109.819 311.496 109.698 311.532 109.604C311.568 109.509 311.615 109.442 311.672 109.404C311.735 109.361 311.809 109.34 311.893 109.342C311.961 109.343 312.028 109.362 312.094 109.397C312.167 109.427 312.23 109.485 312.284 109.57ZM313.001 109.688C312.996 109.863 313.058 110.011 313.184 110.132C313.311 110.253 313.464 110.316 313.644 110.32C313.824 110.324 313.977 110.268 314.104 110.153C314.236 110.038 314.305 109.893 314.309 109.719C314.313 109.539 314.252 109.391 314.126 109.275C314.005 109.154 313.854 109.092 313.674 109.088C313.494 109.083 313.338 109.139 313.206 109.254C313.074 109.363 313.005 109.508 313.001 109.688ZM313.082 111.193L312.987 115.076L314.05 115.101L314.146 111.218L313.082 111.193ZM316.085 113.206C316.091 112.986 316.146 112.793 316.252 112.627C316.357 112.46 316.495 112.331 316.667 112.239C316.843 112.142 317.036 112.096 317.244 112.101C317.402 112.105 317.559 112.134 317.715 112.188C317.871 112.242 318.013 112.319 318.14 112.417C318.273 112.51 318.372 112.62 318.436 112.745L318.464 111.623C318.332 111.501 318.157 111.404 317.939 111.332C317.727 111.254 317.477 111.211 317.19 111.204C316.78 111.195 316.406 111.271 316.07 111.432C315.739 111.593 315.475 111.823 315.276 112.123C315.083 112.422 314.981 112.775 314.971 113.18C314.961 113.579 315.046 113.936 315.224 114.25C315.407 114.558 315.661 114.8 315.983 114.977C316.311 115.153 316.68 115.246 317.091 115.256C317.378 115.262 317.629 115.235 317.844 115.172C318.066 115.104 318.245 115.01 318.383 114.889L318.411 113.766C318.34 113.889 318.239 113.996 318.107 114.089C317.981 114.176 317.839 114.246 317.68 114.298C317.521 114.345 317.357 114.367 317.189 114.363C316.98 114.358 316.79 114.306 316.618 114.206C316.452 114.106 316.32 113.971 316.223 113.8C316.126 113.629 316.08 113.431 316.085 113.206Z" fill="#303030"/>
<ellipse cx="230.042" cy="103.427" rx="17.6906" ry="17.7275" transform="rotate(21.7327 230.042 103.427)" fill="#CFDDFF"/>
<g filter="url(#filter2_d_4_4096)">
<ellipse cx="230.043" cy="103.427" rx="9.18119" ry="9.20036" transform="rotate(21.7327 230.043 103.427)" fill="#2562FF"/>
<path d="M238.326 106.729C236.499 111.315 231.308 113.552 226.734 111.729C222.159 109.905 219.932 104.711 221.759 100.126C223.587 95.5404 228.777 93.3027 233.352 95.1261C237.926 96.9495 240.154 102.144 238.326 106.729Z" stroke="#CAD9FF" stroke-width="0.527677"/>
</g>
<path d="M133.387 148L131.896 295.766M268.811 149.251L267.32 297.017M202.141 148.635L200.65 296.401M336.87 149.879L335.379 297.646M166.722 148.308L165.231 296.074M302.841 149.565L301.35 297.331M235.475 148.943L233.984 296.709M370.9 150.194L369.408 297.96M104.041 269.34L403.362 272.105M104.679 206.139L403.999 208.903M104.355 238.185L403.675 240.949M105.002 174.093L404.322 176.858" stroke="#E4B5A8" stroke-width="0.411357"/>
<path d="M126 286L195.077 226.681L219.5 258L275 212L318.822 262.876L383 193" stroke="url(#paint5_linear_4_4096)" stroke-width="8" stroke-linecap="round"/>
<g filter="url(#filter3_d_4_4096)">
<ellipse cx="275.727" cy="212.741" rx="12.0979" ry="12.1232" transform="rotate(21.7327 275.727 212.741)" fill="white"/>
<path d="M285.107 216.48C283.035 221.677 277.155 224.208 271.978 222.145C266.801 220.081 264.275 214.199 266.346 209.002C268.418 203.805 274.298 201.274 279.475 203.337C284.652 205.401 287.178 211.283 285.107 216.48Z" stroke="#3DACB7" stroke-width="4"/>
</g>
<g filter="url(#filter4_d_4_4096)">
<ellipse cx="217.727" cy="258.741" rx="12.0979" ry="12.1232" transform="rotate(21.7327 217.727 258.741)" fill="white"/>
<path d="M227.107 262.48C225.035 267.677 219.155 270.208 213.978 268.145C208.801 266.081 206.275 260.199 208.346 255.002C210.418 249.805 216.298 247.274 221.475 249.337C226.652 251.401 229.178 257.283 227.107 262.48Z" stroke="#3D95CF" stroke-width="4"/>
</g>
<g filter="url(#filter5_d_4_4096)">
<ellipse cx="320.727" cy="258.741" rx="12.0979" ry="12.1232" transform="rotate(21.7327 320.727 258.741)" fill="white"/>
<path d="M330.107 262.48C328.035 267.677 322.155 270.208 316.978 268.145C311.801 266.081 309.275 260.199 311.346 255.002C313.418 249.805 319.298 247.274 324.475 249.337C329.652 251.401 332.178 257.283 330.107 262.48Z" stroke="#3DC39E" stroke-width="4"/>
</g>
<g filter="url(#filter6_d_4_4096)">
<ellipse cx="191.704" cy="227.718" rx="12.0803" ry="12.1055" transform="rotate(21.7327 191.704 227.718)" fill="white"/>
<path d="M201.068 231.451C199 236.639 193.13 239.165 187.962 237.105C182.794 235.045 180.272 229.174 182.34 223.986C184.408 218.798 190.278 216.271 195.446 218.331C200.614 220.391 203.136 226.263 201.068 231.451Z" stroke="#3C88DC" stroke-width="4"/>
</g>
<defs>
<filter id="filter0_i_4_4096" x="28.3965" y="54.5862" width="161.116" height="85.017" filterUnits="userSpaceOnUse" color-interpolation-filters="sRGB">
<feFlood flood-opacity="0" result="BackgroundImageFix"/>
<feBlend mode="normal" in="SourceGraphic" in2="BackgroundImageFix" result="shape"/>
<feColorMatrix in="SourceAlpha" type="matrix" values="0 0 0 0 0 0 0 0 0 0 0 0 0 0 0 0 0 0 127 0" result="hardAlpha"/>
<feOffset dx="-1.02691" dy="1.02691"/>
<feComposite in2="hardAlpha" operator="arithmetic" k2="-1" k3="1"/>
<feColorMatrix type="matrix" values="0 0 0 0 1 0 0 0 0 1 0 0 0 0 1 0 0 0 1 0"/>
<feBlend mode="normal" in2="shape" result="effect1_innerShadow_4_4096"/>
</filter>
<filter id="filter1_i_4_4096" x="201.929" y="71.1022" width="130.586" height="64.2501" filterUnits="userSpaceOnUse" color-interpolation-filters="sRGB">
<feFlood flood-opacity="0" result="BackgroundImageFix"/>
<feBlend mode="normal" in="SourceGraphic" in2="BackgroundImageFix" result="shape"/>
<feColorMatrix in="SourceAlpha" type="matrix" values="0 0 0 0 0 0 0 0 0 0 0 0 0 0 0 0 0 0 127 0" result="hardAlpha"/>
<feOffset dx="-1.02691" dy="1.02691"/>
<feComposite in2="hardAlpha" operator="arithmetic" k2="-1" k3="1"/>
<feColorMatrix type="matrix" values="0 0 0 0 1 0 0 0 0 1 0 0 0 0 1 0 0 0 1 0"/>
<feBlend mode="normal" in2="shape" result="effect1_innerShadow_4_4096"/>
</filter>
<filter id="filter2_d_4_4096" x="219.273" y="94.2273" width="24.7052" height="25.2602" filterUnits="userSpaceOnUse" color-interpolation-filters="sRGB">
<feFlood flood-opacity="0" result="BackgroundImageFix"/>
<feColorMatrix in="SourceAlpha" type="matrix" values="0 0 0 0 0 0 0 0 0 0 0 0 0 0 0 0 0 0 127 0" result="hardAlpha"/>
<feOffset dx="1.58303" dy="3.69374"/>
<feGaussianBlur stdDeviation="1.58303"/>
<feComposite in2="hardAlpha" operator="out"/>
<feColorMatrix type="matrix" values="0 0 0 0 0.66125 0 0 0 0 0.717563 0 0 0 0 0.8625 0 0 0 1 0"/>
<feBlend mode="normal" in2="BackgroundImageFix" result="effect1_dropShadow_4_4096"/>
<feBlend mode="normal" in="SourceGraphic" in2="effect1_dropShadow_4_4096" result="shape"/>
</filter>
<filter id="filter3_d_4_4096" x="261.831" y="200.618" width="31.3724" height="32.0062" filterUnits="userSpaceOnUse" color-interpolation-filters="sRGB">
<feFlood flood-opacity="0" result="BackgroundImageFix"/>
<feColorMatrix in="SourceAlpha" type="matrix" values="0 0 0 0 0 0 0 0 0 0 0 0 0 0 0 0 0 0 127 0" result="hardAlpha"/>
<feOffset dx="1.79086" dy="4.17866"/>
<feGaussianBlur stdDeviation="1.79086"/>
<feComposite in2="hardAlpha" operator="out"/>
<feColorMatrix type="matrix" values="0 0 0 0 0.875 0 0 0 0 0.73125 0 0 0 0 0.707292 0 0 0 1 0"/>
<feBlend mode="multiply" in2="BackgroundImageFix" result="effect1_dropShadow_4_4096"/>
<feBlend mode="normal" in="SourceGraphic" in2="effect1_dropShadow_4_4096" result="shape"/>
</filter>
<filter id="filter4_d_4_4096" x="203.831" y="246.618" width="31.3724" height="32.0062" filterUnits="userSpaceOnUse" color-interpolation-filters="sRGB">
<feFlood flood-opacity="0" result="BackgroundImageFix"/>
<feColorMatrix in="SourceAlpha" type="matrix" values="0 0 0 0 0 0 0 0 0 0 0 0 0 0 0 0 0 0 127 0" result="hardAlpha"/>
<feOffset dx="1.79086" dy="4.17866"/>
<feGaussianBlur stdDeviation="1.79086"/>
<feComposite in2="hardAlpha" operator="out"/>
<feColorMatrix type="matrix" values="0 0 0 0 0.875 0 0 0 0 0.73125 0 0 0 0 0.707292 0 0 0 1 0"/>
<feBlend mode="multiply" in2="BackgroundImageFix" result="effect1_dropShadow_4_4096"/>
<feBlend mode="normal" in="SourceGraphic" in2="effect1_dropShadow_4_4096" result="shape"/>
</filter>
<filter id="filter5_d_4_4096" x="306.831" y="246.618" width="31.3724" height="32.0062" filterUnits="userSpaceOnUse" color-interpolation-filters="sRGB">
<feFlood flood-opacity="0" result="BackgroundImageFix"/>
<feColorMatrix in="SourceAlpha" type="matrix" values="0 0 0 0 0 0 0 0 0 0 0 0 0 0 0 0 0 0 127 0" result="hardAlpha"/>
<feOffset dx="1.79086" dy="4.17866"/>
<feGaussianBlur stdDeviation="1.79086"/>
<feComposite in2="hardAlpha" operator="out"/>
<feColorMatrix type="matrix" values="0 0 0 0 0.875 0 0 0 0 0.73125 0 0 0 0 0.707292 0 0 0 1 0"/>
<feBlend mode="multiply" in2="BackgroundImageFix" result="effect1_dropShadow_4_4096"/>
<feBlend mode="normal" in="SourceGraphic" in2="effect1_dropShadow_4_4096" result="shape"/>
</filter>
<filter id="filter6_d_4_4096" x="177.826" y="215.613" width="31.3372" height="31.9709" filterUnits="userSpaceOnUse" color-interpolation-filters="sRGB">
<feFlood flood-opacity="0" result="BackgroundImageFix"/>
<feColorMatrix in="SourceAlpha" type="matrix" values="0 0 0 0 0 0 0 0 0 0 0 0 0 0 0 0 0 0 127 0" result="hardAlpha"/>
<feOffset dx="1.79086" dy="4.17866"/>
<feGaussianBlur stdDeviation="1.79086"/>
<feComposite in2="hardAlpha" operator="out"/>
<feColorMatrix type="matrix" values="0 0 0 0 0.875 0 0 0 0 0.73125 0 0 0 0 0.707292 0 0 0 1 0"/>
<feBlend mode="multiply" in2="BackgroundImageFix" result="effect1_dropShadow_4_4096"/>
<feBlend mode="normal" in="SourceGraphic" in2="effect1_dropShadow_4_4096" result="shape"/>
</filter>
<linearGradient id="paint0_linear_4_4096" x1="146.232" y1="30.4321" x2="11.7943" y2="1.06736" gradientUnits="userSpaceOnUse">
<stop stop-color="#F4F4F4"/>
<stop offset="0.421875" stop-color="#F4F4F4"/>
<stop offset="1" stop-color="white"/>
</linearGradient>
<linearGradient id="paint1_linear_4_4096" x1="108.884" y1="68.3843" x2="108.458" y2="136.402" gradientUnits="userSpaceOnUse">
<stop stop-color="#DADADA"/>
<stop offset="1" stop-color="white" stop-opacity="0"/>
</linearGradient>
<linearGradient id="paint2_linear_4_4096" x1="107.961" y1="97.0059" x2="107.444" y2="121.765" gradientUnits="userSpaceOnUse">
<stop stop-color="#65D2E5"/>
<stop offset="1" stop-color="white" stop-opacity="0"/>
</linearGradient>
<linearGradient id="paint3_linear_4_4096" x1="108.282" y1="85.6691" x2="107.48" y2="130.802" gradientUnits="userSpaceOnUse">
<stop stop-color="#6865E5"/>
<stop offset="1" stop-color="white" stop-opacity="0"/>
</linearGradient>
<linearGradient id="paint4_linear_4_4096" x1="118.88" y1="23.2751" x2="10.2306" y2="-1.95031" gradientUnits="userSpaceOnUse">
<stop stop-color="#F4F4F4"/>
<stop offset="0.421875" stop-color="#F4F4F4"/>
<stop offset="1" stop-color="white"/>
</linearGradient>
<linearGradient id="paint5_linear_4_4096" x1="342.131" y1="185.962" x2="130.79" y2="245.963" gradientUnits="userSpaceOnUse">
<stop stop-color="#3DCF92"/>
<stop offset="1" stop-color="#3D67FF"/>
</linearGradient>
</defs>
</svg>
