<svg width="1920" height="606" viewBox="0 0 1920 606" fill="none" xmlns="http://www.w3.org/2000/svg">
<rect width="1920" height="605.488" fill="url(#paint0_linear_4_3069)"/>
<mask id="mask0_4_3069" style="mask-type:alpha" maskUnits="userSpaceOnUse" x="0" y="0" width="1920" height="606">
<rect width="1920" height="605.216" fill="#D9D9D9"/>
</mask>
<g mask="url(#mask0_4_3069)">
<g filter="url(#filter0_f_4_3069)">
<circle cx="1682.83" cy="282.786" r="154" fill="#7DFFE8"/>
</g>
<g filter="url(#filter1_f_4_3069)">
<circle cx="757.685" cy="542.632" r="154" fill="#7CFF99"/>
</g>
<g filter="url(#filter2_f_4_3069)">
<circle cx="1188.92" cy="552.613" r="224.617" fill="#EDFFBB"/>
</g>
<circle cx="967.851" cy="511.969" r="332.851" fill="#F4F6FB"/>
<g filter="url(#filter3_f_4_3069)">
<circle cx="972.387" cy="428.827" r="105.315" fill="#CFDDEC"/>
</g>
<path d="M956.147 658.314L904.745 676.778M956.147 658.314L956.147 250.992M956.147 658.314L1015.15 666.903M956.147 658.314L1175.16 585.61M1175.16 299.859L1123.17 288.257M1175.16 299.859L1175.16 375.841M1175.16 299.859L773.669 421.728M956.147 250.992L897.742 266.292M956.147 250.992L1015.15 264.156M853.343 695.243L783.615 720.291L781.084 644.309M853.343 695.243L839.337 281.592M853.343 695.243L904.745 676.778M839.337 281.592L769.609 299.859L771.639 360.793M839.337 281.592L897.742 266.292M897.742 266.292L904.745 676.778M1015.15 264.156L1015.15 666.903M1015.15 264.156L1071.17 276.655M1015.15 666.903L1071.17 675.058M1071.17 675.058L1071.17 276.655M1071.17 675.058L1123.17 682.627M1071.17 675.058L1175.16 637.903M1071.17 276.655L1123.17 288.257M1071.17 276.655L771.639 360.793M1123.17 288.257L1123.17 682.627M1123.17 682.627L1175.16 690.196L1175.16 637.903M781.084 644.309L1175.16 514.693M781.084 644.309L778.959 580.544M1175.16 514.693L1175.16 443.479M1175.16 514.693L1175.16 585.61M778.959 580.544L1175.16 443.479M778.959 580.544L776.359 502.477M1175.16 443.479L1175.16 375.841M776.359 502.477L1175.16 375.841M776.359 502.477L773.669 421.728M773.669 421.728L771.639 360.793M1175.16 585.61L1175.16 637.903" stroke="url(#paint1_linear_4_3069)" stroke-width="2"/>
</g>
<defs>
<filter id="filter0_f_4_3069" x="1202.83" y="-197.214" width="960" height="960" filterUnits="userSpaceOnUse" color-interpolation-filters="sRGB">
<feFlood flood-opacity="0" result="BackgroundImageFix"/>
<feBlend mode="normal" in="SourceGraphic" in2="BackgroundImageFix" result="shape"/>
<feGaussianBlur stdDeviation="163" result="effect1_foregroundBlur_4_3069"/>
</filter>
<filter id="filter1_f_4_3069" x="277.685" y="62.6323" width="960" height="960" filterUnits="userSpaceOnUse" color-interpolation-filters="sRGB">
<feFlood flood-opacity="0" result="BackgroundImageFix"/>
<feBlend mode="normal" in="SourceGraphic" in2="BackgroundImageFix" result="shape"/>
<feGaussianBlur stdDeviation="163" result="effect1_foregroundBlur_4_3069"/>
</filter>
<filter id="filter2_f_4_3069" x="638.301" y="1.99658" width="1101.23" height="1101.23" filterUnits="userSpaceOnUse" color-interpolation-filters="sRGB">
<feFlood flood-opacity="0" result="BackgroundImageFix"/>
<feBlend mode="normal" in="SourceGraphic" in2="BackgroundImageFix" result="shape"/>
<feGaussianBlur stdDeviation="163" result="effect1_foregroundBlur_4_3069"/>
</filter>
<filter id="filter3_f_4_3069" x="667.072" y="123.512" width="610.63" height="610.63" filterUnits="userSpaceOnUse" color-interpolation-filters="sRGB">
<feFlood flood-opacity="0" result="BackgroundImageFix"/>
<feBlend mode="normal" in="SourceGraphic" in2="BackgroundImageFix" result="shape"/>
<feGaussianBlur stdDeviation="100" result="effect1_foregroundBlur_4_3069"/>
</filter>
<linearGradient id="paint0_linear_4_3069" x1="180" y1="69.2929" x2="976.637" y2="1050.47" gradientUnits="userSpaceOnUse">
<stop stop-color="#CFD4FF"/>
<stop offset="1" stop-color="#FFFFFD"/>
</linearGradient>
<linearGradient id="paint1_linear_4_3069" x1="1155.3" y1="327.207" x2="1009.8" y2="513.818" gradientUnits="userSpaceOnUse">
<stop stop-color="#CFDEEC"/>
<stop offset="1" stop-color="#B0C2D5" stop-opacity="0"/>
</linearGradient>
</defs>
</svg>
