<svg xmlns="http://www.w3.org/2000/svg" width="86" height="86" viewBox="0 0 86 86" fill="none">
  <circle cx="43" cy="43" r="42.5" fill="white" stroke="#D5D5D5"/>
  <path d="M37.6875 47.25C41.5017 47.25 44.5938 44.158 44.5938 40.3438C44.5938 36.5295 41.5017 33.4375 37.6875 33.4375C33.8733 33.4375 30.7812 36.5295 30.7812 40.3438C30.7812 44.158 33.8733 47.25 37.6875 47.25Z" stroke="#5956E8" stroke-width="2" stroke-miterlimit="10"/>
  <path d="M46.6387 33.6898C47.2492 33.5243 47.8788 33.4394 48.5113 33.4375C50.343 33.4375 52.0996 34.1651 53.3948 35.4603C54.69 36.7555 55.4176 38.5121 55.4176 40.3438C55.4176 42.1754 54.69 43.932 53.3948 45.2272C52.0996 46.5224 50.343 47.25 48.5113 47.25" stroke="#5956E8" stroke-width="2" stroke-linecap="round" stroke-linejoin="round"/>
  <path d="M28.125 52.2167C29.2034 50.6821 30.6352 49.4297 32.2996 48.565C33.9639 47.7004 35.8119 47.249 37.6875 47.249C39.5631 47.249 41.4111 47.7004 43.0754 48.565C44.7398 49.4297 46.1716 50.6821 47.25 52.2167" stroke="#5956E8" stroke-width="2" stroke-linecap="round" stroke-linejoin="round"/>
  <path d="M48.5117 47.25C50.3874 47.2488 52.2358 47.6997 53.9004 48.5643C55.5649 49.4289 56.9966 50.6819 58.0742 52.2172" stroke="#5956E8" stroke-width="2" stroke-linecap="round" stroke-linejoin="round"/>
</svg>