<svg width="28" height="28" viewBox="0 0 28 28" fill="none" xmlns="http://www.w3.org/2000/svg">
<g id="Twitter">
<rect x="0.514648" y="0.960938" width="26.9717" height="26.9717" rx="13.4859" fill="#1D9BF0"/>
<path id="Vector" d="M11.533 21.5607C17.514 21.5607 20.7843 16.6046 20.7843 12.3093C20.7843 12.1677 20.7843 12.0261 20.7776 11.8913C21.4114 11.4328 21.9643 10.8596 22.4026 10.2055C21.8227 10.4618 21.1956 10.6371 20.5348 10.718C21.2091 10.3134 21.7216 9.6796 21.9643 8.91764C21.3372 9.2885 20.6427 9.55822 19.901 9.70657C19.3076 9.07273 18.4648 8.68164 17.5275 8.68164C15.7339 8.68164 14.2774 10.1381 14.2774 11.9317C14.2774 12.188 14.3044 12.4375 14.3651 12.6735C11.6611 12.5386 9.26739 11.244 7.66258 9.27502C7.38611 9.75377 7.22428 10.3134 7.22428 10.9068C7.22428 12.0329 7.79743 13.0308 8.67402 13.6107C8.14132 13.5972 7.64235 13.4489 7.20406 13.2062C7.20406 13.2196 7.20406 13.2331 7.20406 13.2466C7.20406 14.8245 8.32338 16.1326 9.81357 16.436C9.54385 16.5102 9.25391 16.5506 8.95722 16.5506C8.74819 16.5506 8.5459 16.5304 8.34361 16.49C8.75493 17.7846 9.95517 18.7219 11.3779 18.7488C10.2653 19.6187 8.86282 20.1379 7.33891 20.1379C7.07594 20.1379 6.81971 20.1244 6.56348 20.0907C7.98624 21.0212 9.69894 21.5607 11.533 21.5607Z" fill="white"/>
</g>
</svg>
